<mxfile host="drawio-plugin" modified="2023-04-12T03:09:42.575Z" agent="5.0 (Windows NT 6.2; Win64; x64) AppleWebKit/537.36 (KHTML, like Gecko) Chrome/104.0.5112.102 Safari/537.36" version="20.5.3" etag="q9iPHQ1MKmxbgWPYAjwj" type="embed"><diagram id="QtCWy7zydTddkRp_D2q0" name="Page-1"><mxGraphModel dx="725" dy="1619" grid="0" gridSize="10" guides="1" tooltips="1" connect="1" arrows="1" fold="1" page="1" pageScale="1" pageWidth="850" pageHeight="1100" background="#ffffff" math="0" shadow="0"><root><mxCell id="0"/><mxCell id="1" parent="0"/><mxCell id="3" value="User&amp;nbsp; Management" style="ellipse;whiteSpace=wrap;html=1;fillColor=#F9F7ED;strokeColor=#36393d;fontColor=#000000;" vertex="1" parent="1"><mxGeometry x="280" y="-70" width="120" height="70" as="geometry"/></mxCell><mxCell id="4" value="&lt;p&gt;Song Management&lt;/p&gt;" style="ellipse;whiteSpace=wrap;html=1;fillColor=#f9f7ed;strokeColor=#36393d;fontColor=#000000;" vertex="1" parent="1"><mxGeometry x="280" y="250" width="120" height="70" as="geometry"/></mxCell><mxCell id="5" value="Singer Management" style="ellipse;whiteSpace=wrap;html=1;fillColor=#f9f7ed;strokeColor=#36393d;fontColor=#000000;" vertex="1" parent="1"><mxGeometry x="280" y="90" width="120" height="70" as="geometry"/></mxCell><mxCell id="6" value="Band Management" style="ellipse;whiteSpace=wrap;html=1;fillColor=#f9f7ed;strokeColor=#36393d;fontColor=#000000;" vertex="1" parent="1"><mxGeometry x="280" y="170" width="120" height="70" as="geometry"/></mxCell><mxCell id="14" style="edgeStyle=orthogonalEdgeStyle;rounded=0;orthogonalLoop=1;jettySize=auto;html=1;fontFamily=Times New Roman;fontColor=#000000;entryX=0;entryY=0.5;entryDx=0;entryDy=0;" edge="1" parent="1" target="4"><mxGeometry relative="1" as="geometry"><mxPoint x="140" y="240" as="targetPoint"/><mxPoint x="260" y="130" as="sourcePoint"/></mxGeometry></mxCell><mxCell id="8" value="&lt;font color=&quot;#000000&quot;&gt;ADMIN&lt;/font&gt;" style="shape=umlActor;verticalLabelPosition=bottom;verticalAlign=top;html=1;outlineConnect=0;fillColor=#eeeeee;strokeColor=#36393d;" vertex="1" parent="1"><mxGeometry x="40" y="220" width="30" height="60" as="geometry"/></mxCell><mxCell id="10" value="Playlist Management" style="ellipse;whiteSpace=wrap;html=1;fillColor=#f9f7ed;strokeColor=#36393d;fontColor=#000000;" vertex="1" parent="1"><mxGeometry x="280" y="330" width="120" height="70" as="geometry"/></mxCell><mxCell id="12" value="Login,Account Settings( Change Profile, Change Password)" style="ellipse;whiteSpace=wrap;html=1;fillColor=#f9f7ed;strokeColor=#36393d;fontColor=#000000;" vertex="1" parent="1"><mxGeometry x="280" y="410" width="120" height="70" as="geometry"/></mxCell><mxCell id="13" value="Play Music Song (Play, Like, Comment)" style="ellipse;whiteSpace=wrap;html=1;fillColor=#f9f7ed;strokeColor=#36393d;fontColor=#000000;" vertex="1" parent="1"><mxGeometry x="280" y="570" width="120" height="70" as="geometry"/></mxCell><mxCell id="21" style="edgeStyle=orthogonalEdgeStyle;rounded=0;orthogonalLoop=1;jettySize=auto;html=1;exitX=0.5;exitY=0.5;exitDx=0;exitDy=0;exitPerimeter=0;fontFamily=Times New Roman;fontColor=#000000;" edge="1" parent="1"><mxGeometry relative="1" as="geometry"><mxPoint x="105" y="340" as="sourcePoint"/><mxPoint x="535" y="400" as="targetPoint"/></mxGeometry></mxCell><mxCell id="19" style="edgeStyle=orthogonalEdgeStyle;rounded=0;orthogonalLoop=1;jettySize=auto;html=1;exitX=0.5;exitY=0.5;exitDx=0;exitDy=0;exitPerimeter=0;fontFamily=Times New Roman;fontColor=#000000;" edge="1" parent="1" source="16" target="18"><mxGeometry relative="1" as="geometry"/></mxCell><mxCell id="16" value="&lt;font color=&quot;#000000&quot;&gt;USER&lt;/font&gt;" style="shape=umlActor;verticalLabelPosition=bottom;verticalAlign=top;html=1;outlineConnect=0;fillColor=#eeeeee;strokeColor=#36393d;" vertex="1" parent="1"><mxGeometry x="40" y="620" width="30" height="60" as="geometry"/></mxCell><mxCell id="17" value="&lt;font color=&quot;#000000&quot;&gt;PM&lt;/font&gt;" style="shape=umlActor;verticalLabelPosition=bottom;verticalAlign=top;html=1;outlineConnect=0;fillColor=#eeeeee;strokeColor=#36393d;" vertex="1" parent="1"><mxGeometry x="600" y="220" width="30" height="60" as="geometry"/></mxCell><mxCell id="18" value="GUEST" style="shape=umlActor;verticalLabelPosition=bottom;verticalAlign=top;html=1;outlineConnect=0;fillColor=#eeeeee;strokeColor=#36393d;fontFamily=Times New Roman;fontColor=#000000;" vertex="1" parent="1"><mxGeometry x="600" y="620" width="30" height="60" as="geometry"/></mxCell><mxCell id="28" value="" style="curved=1;endArrow=classic;html=1;rounded=0;fontFamily=Times New Roman;fontColor=#000000;" edge="1" parent="1"><mxGeometry width="50" height="50" relative="1" as="geometry"><mxPoint x="460" y="230" as="sourcePoint"/><mxPoint x="510" y="180" as="targetPoint"/><Array as="points"><mxPoint x="510" y="230"/><mxPoint x="460" y="180"/></Array></mxGeometry></mxCell><mxCell id="29" value="" style="curved=1;endArrow=classic;html=1;rounded=0;fontFamily=Times New Roman;fontColor=#000000;" edge="1" parent="1"><mxGeometry width="50" height="50" relative="1" as="geometry"><mxPoint x="460" y="230" as="sourcePoint"/><mxPoint x="510" y="180" as="targetPoint"/><Array as="points"><mxPoint x="510" y="230"/><mxPoint x="460" y="180"/></Array></mxGeometry></mxCell><mxCell id="30" value="" style="endArrow=classic;html=1;rounded=0;fontFamily=Times New Roman;fontColor=#000000;entryX=0;entryY=0.5;entryDx=0;entryDy=0;strokeColor=#000000;" edge="1" parent="1" target="3"><mxGeometry width="50" height="50" relative="1" as="geometry"><mxPoint x="80" y="240" as="sourcePoint"/><mxPoint x="130" y="190" as="targetPoint"/></mxGeometry></mxCell><mxCell id="31" value="" style="endArrow=classic;html=1;rounded=0;fontFamily=Times New Roman;fontColor=#000000;strokeColor=#000000;" edge="1" parent="1"><mxGeometry width="50" height="50" relative="1" as="geometry"><mxPoint x="80" y="240" as="sourcePoint"/><mxPoint x="280" y="130" as="targetPoint"/></mxGeometry></mxCell><mxCell id="32" value="" style="endArrow=classic;html=1;rounded=0;fontFamily=Times New Roman;fontColor=#000000;strokeColor=#000000;" edge="1" parent="1"><mxGeometry width="50" height="50" relative="1" as="geometry"><mxPoint x="80" y="240" as="sourcePoint"/><mxPoint x="280" y="200" as="targetPoint"/></mxGeometry></mxCell><mxCell id="33" value="" style="endArrow=classic;html=1;rounded=0;fontFamily=Times New Roman;fontColor=#000000;strokeColor=#000000;" edge="1" parent="1"><mxGeometry width="50" height="50" relative="1" as="geometry"><mxPoint x="80" y="240" as="sourcePoint"/><mxPoint x="280" y="280" as="targetPoint"/></mxGeometry></mxCell><mxCell id="34" value="" style="endArrow=classic;html=1;rounded=0;fontFamily=Times New Roman;fontColor=#000000;entryX=1;entryY=0.5;entryDx=0;entryDy=0;strokeColor=#000000;exitX=0;exitY=0.3333333333333333;exitDx=0;exitDy=0;exitPerimeter=0;" edge="1" parent="1" source="17" target="4"><mxGeometry width="50" height="50" relative="1" as="geometry"><mxPoint x="120" y="280" as="sourcePoint"/><mxPoint x="320" y="85" as="targetPoint"/></mxGeometry></mxCell><mxCell id="35" value="" style="endArrow=classic;html=1;rounded=0;fontFamily=Times New Roman;fontColor=#000000;entryX=1;entryY=0.5;entryDx=0;entryDy=0;strokeColor=#000000;exitX=0;exitY=0.3333333333333333;exitDx=0;exitDy=0;exitPerimeter=0;" edge="1" parent="1" source="17" target="3"><mxGeometry width="50" height="50" relative="1" as="geometry"><mxPoint x="130" y="290" as="sourcePoint"/><mxPoint x="330" y="95" as="targetPoint"/></mxGeometry></mxCell><mxCell id="38" value="" style="endArrow=classic;html=1;rounded=0;fontFamily=Times New Roman;fontColor=#000000;entryX=0;entryY=0.5;entryDx=0;entryDy=0;strokeColor=#000000;" edge="1" parent="1" target="10"><mxGeometry width="50" height="50" relative="1" as="geometry"><mxPoint x="80" y="240" as="sourcePoint"/><mxPoint x="360" y="125" as="targetPoint"/></mxGeometry></mxCell><mxCell id="41" value="" style="endArrow=classic;html=1;rounded=0;fontFamily=Times New Roman;fontColor=#000000;entryX=1;entryY=0.5;entryDx=0;entryDy=0;strokeColor=#000000;" edge="1" parent="1" target="10"><mxGeometry width="50" height="50" relative="1" as="geometry"><mxPoint x="600" y="240" as="sourcePoint"/><mxPoint x="390" y="155" as="targetPoint"/></mxGeometry></mxCell><mxCell id="42" value="" style="endArrow=classic;html=1;rounded=0;fontFamily=Times New Roman;fontColor=#000000;entryX=0;entryY=0.5;entryDx=0;entryDy=0;strokeColor=#000000;" edge="1" parent="1" target="12"><mxGeometry width="50" height="50" relative="1" as="geometry"><mxPoint x="80" y="240" as="sourcePoint"/><mxPoint x="400" y="165" as="targetPoint"/></mxGeometry></mxCell><mxCell id="45" value="" style="endArrow=classic;html=1;rounded=0;fontFamily=Times New Roman;fontColor=#000000;entryX=1;entryY=0.5;entryDx=0;entryDy=0;strokeColor=#000000;" edge="1" parent="1" target="12"><mxGeometry width="50" height="50" relative="1" as="geometry"><mxPoint x="600" y="240" as="sourcePoint"/><mxPoint x="410" y="175" as="targetPoint"/></mxGeometry></mxCell><mxCell id="48" value="" style="endArrow=classic;html=1;rounded=0;fontFamily=Times New Roman;fontColor=#000000;entryX=0;entryY=0.5;entryDx=0;entryDy=0;strokeColor=#000000;" edge="1" parent="1" target="12"><mxGeometry width="50" height="50" relative="1" as="geometry"><mxPoint x="80" y="640" as="sourcePoint"/><mxPoint x="290" y="455" as="targetPoint"/></mxGeometry></mxCell><mxCell id="52" value="" style="endArrow=classic;html=1;rounded=0;fontFamily=Times New Roman;fontColor=#000000;entryX=0;entryY=0.5;entryDx=0;entryDy=0;strokeColor=#000000;" edge="1" parent="1" target="13"><mxGeometry width="50" height="50" relative="1" as="geometry"><mxPoint x="80" y="640" as="sourcePoint"/><mxPoint x="310" y="475" as="targetPoint"/></mxGeometry></mxCell><mxCell id="53" value="" style="endArrow=classic;html=1;rounded=0;fontFamily=Times New Roman;fontColor=#000000;entryX=1;entryY=0.5;entryDx=0;entryDy=0;strokeColor=#000000;" edge="1" parent="1" target="13"><mxGeometry width="50" height="50" relative="1" as="geometry"><mxPoint x="600" y="640" as="sourcePoint"/><mxPoint x="320" y="485" as="targetPoint"/></mxGeometry></mxCell><mxCell id="55" value="Show&amp;nbsp; Song, Singer, Band, Playlist" style="ellipse;whiteSpace=wrap;html=1;fillColor=#f9f7ed;strokeColor=#36393d;fontColor=#000000;" vertex="1" parent="1"><mxGeometry x="280" y="650" width="120" height="70" as="geometry"/></mxCell><mxCell id="57" value="Show Top Like, View Song" style="ellipse;whiteSpace=wrap;html=1;fillColor=#f9f7ed;strokeColor=#36393d;fontColor=#000000;" vertex="1" parent="1"><mxGeometry x="280" y="730" width="120" height="70" as="geometry"/></mxCell><mxCell id="60" value="Register" style="ellipse;whiteSpace=wrap;html=1;fillColor=#f9f7ed;strokeColor=#36393d;fontColor=#000000;" vertex="1" parent="1"><mxGeometry x="280" y="490" width="120" height="70" as="geometry"/></mxCell><mxCell id="62" value="" style="endArrow=classic;html=1;rounded=0;fontFamily=Times New Roman;fontColor=#000000;strokeColor=#000000;entryX=0;entryY=0.5;entryDx=0;entryDy=0;" edge="1" parent="1" target="60"><mxGeometry width="50" height="50" relative="1" as="geometry"><mxPoint x="80" y="640" as="sourcePoint"/><mxPoint x="290" y="615" as="targetPoint"/></mxGeometry></mxCell><mxCell id="63" value="" style="endArrow=classic;html=1;rounded=0;fontFamily=Times New Roman;fontColor=#000000;strokeColor=#000000;entryX=-0.02;entryY=0.409;entryDx=0;entryDy=0;entryPerimeter=0;" edge="1" parent="1" target="55"><mxGeometry width="50" height="50" relative="1" as="geometry"><mxPoint x="80" y="640" as="sourcePoint"/><mxPoint x="300" y="625" as="targetPoint"/></mxGeometry></mxCell><mxCell id="64" value="" style="endArrow=classic;html=1;rounded=0;fontFamily=Times New Roman;fontColor=#000000;strokeColor=#000000;entryX=1;entryY=0.5;entryDx=0;entryDy=0;" edge="1" parent="1" target="60"><mxGeometry width="50" height="50" relative="1" as="geometry"><mxPoint x="600" y="640" as="sourcePoint"/><mxPoint x="310" y="635" as="targetPoint"/></mxGeometry></mxCell><mxCell id="65" value="" style="endArrow=classic;html=1;rounded=0;fontFamily=Times New Roman;fontColor=#000000;entryX=1;entryY=0.5;entryDx=0;entryDy=0;strokeColor=#000000;" edge="1" parent="1" target="55"><mxGeometry width="50" height="50" relative="1" as="geometry"><mxPoint x="600" y="640" as="sourcePoint"/><mxPoint x="410" y="615" as="targetPoint"/></mxGeometry></mxCell><mxCell id="66" value="" style="endArrow=classic;html=1;rounded=0;fontFamily=Times New Roman;fontColor=#000000;entryX=1.022;entryY=0.406;entryDx=0;entryDy=0;strokeColor=#000000;entryPerimeter=0;" edge="1" parent="1" target="57"><mxGeometry width="50" height="50" relative="1" as="geometry"><mxPoint x="600" y="640" as="sourcePoint"/><mxPoint x="420" y="625" as="targetPoint"/></mxGeometry></mxCell><mxCell id="70" value="&lt;p&gt;Category Management&lt;/p&gt;" style="ellipse;whiteSpace=wrap;html=1;fillColor=#f9f7ed;strokeColor=#36393d;fontColor=#000000;" vertex="1" parent="1"><mxGeometry x="280" y="10" width="120" height="70" as="geometry"/></mxCell><mxCell id="72" value="" style="endArrow=classic;html=1;rounded=0;fontFamily=Times New Roman;fontColor=#000000;strokeColor=#000000;entryX=0;entryY=0.5;entryDx=0;entryDy=0;" edge="1" parent="1" target="70"><mxGeometry width="50" height="50" relative="1" as="geometry"><mxPoint x="90" y="240" as="sourcePoint"/><mxPoint x="290" y="140" as="targetPoint"/></mxGeometry></mxCell></root></mxGraphModel></diagram></mxfile>